<svg width="256" height="256" viewBox="0 0 256 256" fill="none" xmlns="http://www.w3.org/2000/svg">
<path fill-rule="evenodd" clip-rule="evenodd" d="M256 128C256 165.875 239.55 199.908 213.405 223.343C209.067 203.354 189.04 154.88 149.985 140.5H138.395C136.32 144.087 132.442 146.5 128 146.5C123.558 146.5 119.68 144.087 117.605 140.5H106.121C67.4686 155.003 47.5656 203.79 43.1439 223.832C16.6804 200.382 0 166.139 0 128C0 57.3076 57.3076 0 128 0C198.692 0 256 57.3076 256 128ZM107.5 128.5H117.605C119.68 124.913 123.558 122.5 128 122.5C132.442 122.5 136.32 124.913 138.395 128.5H149V112.598C158 109.092 167.5 93.5643 154 82.5449V57H149V82.5449L128.294 100.324L107.5 82.5V57H102.5V82.5C89 93.5 98.5 109 107.5 112.5V128.5ZM128 141C131.314 141 134 138.314 134 135C134 131.686 131.314 129 128 129C124.686 129 122 131.686 122 135C122 138.314 124.686 141 128 141Z" fill="url(#paint0_linear_33:527)"/>
<path d="M138.5 140.146H149C188.704 154.067 209.031 203.186 213.405 223.343C202.796 232.568 195.718 237.234 181 244.622C183.4 179.92 153.667 148.679 138.5 140.146Z" fill="url(#paint1_linear_33:527)" fill-opacity="0.2"/>
<path d="M154 82.5449C167.5 93.5643 158 109.092 149 112.598L128.293 100.325L149 82.5449V57H154V82.5449Z" fill="url(#paint2_linear_33:527)" fill-opacity="0.2"/>
<defs>
<linearGradient id="paint0_linear_33:527" x1="128" y1="0" x2="128" y2="223.832" gradientUnits="userSpaceOnUse">
<stop stop-color="#FFA59F"/>
<stop offset="1" stop-color="#F3758A"/>
</linearGradient>
<linearGradient id="paint1_linear_33:527" x1="176" y1="140.146" x2="176" y2="246.622" gradientUnits="userSpaceOnUse">
<stop stop-color="#E17280" stop-opacity="0"/>
<stop offset="1" stop-color="#E47786"/>
</linearGradient>
<linearGradient id="paint2_linear_33:527" x1="128" y1="83" x2="149" y2="112.5" gradientUnits="userSpaceOnUse">
<stop offset="0.298363" stop-color="#E47786"/>
<stop offset="1" stop-color="#E17280" stop-opacity="0"/>
</linearGradient>
</defs>
</svg>
