<svg width="256" height="354" viewBox="0 0 256 354" fill="none" xmlns="http://www.w3.org/2000/svg">
<path d="M17.6792 313.72H20.5592C21.2792 313.72 21.6392 313.36 21.6392 312.64V288.88C21.6392 288.507 21.5459 288.24 21.3592 288.08C21.1992 287.893 20.9325 287.8 20.5592 287.8H17.6792V286.52H29.9192V287.8H26.3992C26.0259 287.8 25.7459 287.893 25.5592 288.08C25.3992 288.24 25.3192 288.507 25.3192 288.88V312.64C25.3192 313.36 25.6792 313.72 26.3992 313.72H30.4392C31.8525 313.72 33.1192 313.4 34.2392 312.76C35.3592 312.12 36.1992 311.187 36.7592 309.96C37.1859 309.053 37.5325 308.093 37.7992 307.08C38.0926 306.04 38.3059 305.16 38.4392 304.44C38.5725 303.72 38.6525 303.267 38.6792 303.08H39.6792L39.3192 315H17.6792V313.72Z" fill="#AF5E6C"/>
<path d="M42.4761 313.72H45.3561C46.0761 313.72 46.4361 313.36 46.4361 312.64V288.88C46.4361 288.507 46.3428 288.24 46.1561 288.08C45.9961 287.893 45.7294 287.8 45.3561 287.8H42.4761V286.52H64.7961L64.9561 296.52H63.9561C63.9561 295.987 63.8361 295.08 63.5961 293.8C63.3828 292.52 62.9428 291.373 62.2761 290.36C61.1561 288.653 59.5828 287.8 57.5561 287.8H51.1961C50.8228 287.8 50.5428 287.893 50.3561 288.08C50.1961 288.24 50.1161 288.507 50.1161 288.88V299.64H53.1961C54.5561 299.64 55.5294 298.947 56.1161 297.56C56.7294 296.173 57.0361 294.693 57.0361 293.12H58.0761V307.44H57.0361C57.0361 305.867 56.7294 304.387 56.1161 303C55.5294 301.613 54.5561 300.92 53.1961 300.92H50.1161V312.64C50.1161 313.36 50.4761 313.72 51.1961 313.72H57.5961C58.3694 313.72 59.1561 313.547 59.9561 313.2C60.7561 312.853 61.4361 312.32 61.9961 311.6C62.5294 310.853 62.9694 309.92 63.3161 308.8C63.6628 307.68 63.9028 306.667 64.0361 305.76C64.1694 304.827 64.2494 304.227 64.2761 303.96H65.2761L64.7961 315H42.4761V313.72Z" fill="#AF5E6C"/>
<path d="M73.8133 290.88H73.6533V310.52C73.6533 311.507 73.8799 312.293 74.3333 312.88C74.8133 313.44 75.4266 313.72 76.1733 313.72H77.6133V315H68.0933V313.72H69.5333C70.3066 313.72 70.9199 313.44 71.3733 312.88C71.8266 312.293 72.0533 311.507 72.0533 310.52V288.88C72.0266 288.507 71.9333 288.24 71.7733 288.08C71.6133 287.893 71.3466 287.8 70.9733 287.8H68.0933V286.52H75.6533L89.5333 308.84V291C89.5333 290.013 89.3066 289.24 88.8533 288.68C88.3999 288.093 87.7999 287.8 87.0533 287.8H85.6133V286.52H95.1333V287.8H93.6933C92.9466 287.8 92.3333 288.093 91.8533 288.68C91.3733 289.24 91.1333 290.013 91.1333 291V315.72H89.5333L73.8133 290.88Z" fill="#AF5E6C"/>
<path d="M94.9455 313.72H96.4255C97.9988 313.72 99.1455 312.747 99.8655 310.8L108.465 286.52H109.465L118.145 311.96C118.412 312.627 118.732 313.093 119.105 313.36C119.479 313.6 119.959 313.72 120.545 313.72H122.785V315H110.385V313.72H113.025C113.425 313.72 113.759 313.627 114.025 313.44C114.292 313.227 114.425 312.987 114.425 312.72C114.425 312.373 114.372 312.08 114.265 311.84L112.385 306.52H103.025L102.065 309.2C101.692 310.267 101.505 311.04 101.505 311.52C101.505 312.107 101.652 312.627 101.945 313.08C102.239 313.507 102.745 313.72 103.465 313.72H105.905V315H94.9455V313.72ZM103.465 305.24H111.945L107.785 293.04L103.465 305.24Z" fill="#AF5E6C"/>
<path d="M139.143 290.12H138.903V310.52C138.903 311.507 139.13 312.293 139.583 312.88C140.063 313.44 140.677 313.72 141.423 313.72H142.863V315H133.343V313.72H134.783C135.53 313.72 136.13 313.44 136.583 312.88C137.063 312.293 137.303 311.507 137.303 310.52V288.88C137.303 288.507 137.21 288.24 137.023 288.08C136.863 287.893 136.597 287.8 136.223 287.8H133.343V286.52H141.823L148.343 308.56L154.423 286.52H162.703V287.8H159.823C159.45 287.8 159.17 287.893 158.983 288.08C158.823 288.24 158.743 288.507 158.743 288.88V312.64C158.743 313.36 159.103 313.72 159.823 313.72H162.703V315H151.103V313.72H153.983C154.703 313.72 155.063 313.36 155.063 312.64V289.04L147.743 315.48H146.783L139.143 290.12Z" fill="#AF5E6C"/>
<path d="M164.859 313.72H167.739C168.459 313.72 168.819 313.36 168.819 312.64V288.88C168.819 288.507 168.726 288.24 168.539 288.08C168.379 287.893 168.112 287.8 167.739 287.8H164.859V286.52H187.179L187.339 296.52H186.339C186.339 295.987 186.219 295.08 185.979 293.8C185.766 292.52 185.326 291.373 184.659 290.36C183.539 288.653 181.966 287.8 179.939 287.8H173.579C173.206 287.8 172.926 287.893 172.739 288.08C172.579 288.24 172.499 288.507 172.499 288.88V299.64H175.579C176.939 299.64 177.912 298.947 178.499 297.56C179.112 296.173 179.419 294.693 179.419 293.12H180.459V307.44H179.419C179.419 305.867 179.112 304.387 178.499 303C177.912 301.613 176.939 300.92 175.579 300.92H172.499V312.64C172.499 313.36 172.859 313.72 173.579 313.72H179.979C180.752 313.72 181.539 313.547 182.339 313.2C183.139 312.853 183.819 312.32 184.379 311.6C184.912 310.853 185.352 309.92 185.699 308.8C186.046 307.68 186.286 306.667 186.419 305.76C186.552 304.827 186.632 304.227 186.659 303.96H187.659L187.179 315H164.859V313.72Z" fill="#AF5E6C"/>
<path d="M190.476 313.72H193.356C194.076 313.72 194.436 313.36 194.436 312.64V288.88C194.436 288.507 194.343 288.24 194.156 288.08C193.996 287.893 193.729 287.8 193.356 287.8H190.476V286.52H202.716V287.8H199.196C198.823 287.8 198.543 287.893 198.356 288.08C198.196 288.24 198.116 288.507 198.116 288.88V312.64C198.116 313.36 198.476 313.72 199.196 313.72H203.236C204.649 313.72 205.916 313.4 207.036 312.76C208.156 312.12 208.996 311.187 209.556 309.96C209.983 309.053 210.329 308.093 210.596 307.08C210.889 306.04 211.103 305.16 211.236 304.44C211.369 303.72 211.449 303.267 211.476 303.08H212.476L212.116 315H190.476V313.72Z" fill="#AF5E6C"/>
<path d="M227.193 315.72C224.953 315.72 222.953 315.013 221.193 313.6C219.433 312.187 218.06 310.333 217.073 308.04C216.086 305.72 215.593 303.293 215.593 300.76C215.593 298.227 216.086 295.813 217.073 293.52C218.06 291.2 219.433 289.333 221.193 287.92C222.953 286.507 224.953 285.8 227.193 285.8C229.433 285.8 231.433 286.507 233.193 287.92C234.953 289.333 236.326 291.2 237.313 293.52C238.3 295.813 238.793 298.227 238.793 300.76C238.793 303.293 238.3 305.72 237.313 308.04C236.326 310.333 234.953 312.187 233.193 313.6C231.433 315.013 229.433 315.72 227.193 315.72ZM227.193 314.44C229.806 314.44 231.686 313.253 232.833 310.88C233.98 308.48 234.553 305.107 234.553 300.76C234.553 296.387 233.98 293.013 232.833 290.64C231.686 288.267 229.806 287.08 227.193 287.08C224.58 287.08 222.7 288.267 221.553 290.64C220.406 293.013 219.833 296.387 219.833 300.76C219.833 305.107 220.406 308.48 221.553 310.88C222.7 313.253 224.58 314.44 227.193 314.44Z" fill="#AF5E6C"/>
<path d="M27.0281 353.168C25.8921 353.168 24.9001 352.912 24.0521 352.4C23.2041 351.888 22.5481 351.168 22.0841 350.24C21.6201 349.296 21.3881 348.208 21.3881 346.976C21.3881 345.728 21.6201 344.632 22.0841 343.688C22.5481 342.728 23.2121 341.992 24.0761 341.48C24.9401 340.952 25.9401 340.688 27.0761 340.688C27.8921 340.688 28.6681 340.832 29.4041 341.12C30.1561 341.392 30.7721 341.776 31.2521 342.272L30.6761 343.424C30.0521 342.912 29.4521 342.544 28.8761 342.32C28.3161 342.08 27.7321 341.96 27.1241 341.96C25.8281 341.96 24.8041 342.408 24.0521 343.304C23.3001 344.184 22.9241 345.408 22.9241 346.976C22.9241 348.512 23.2921 349.712 24.0281 350.576C24.7801 351.44 25.8121 351.872 27.1241 351.872C27.7321 351.872 28.3161 351.76 28.8761 351.536C29.4521 351.296 30.0521 350.928 30.6761 350.432L31.2521 351.56C30.7401 352.056 30.1001 352.448 29.3321 352.736C28.5801 353.024 27.8121 353.168 27.0281 353.168Z" fill="#AF5E6C"/>
<path d="M50.6977 353.168C49.5937 353.168 48.6177 352.912 47.7697 352.4C46.9377 351.888 46.2897 351.16 45.8257 350.216C45.3777 349.272 45.1537 348.176 45.1537 346.928C45.1537 345.68 45.3777 344.584 45.8257 343.64C46.2897 342.696 46.9377 341.968 47.7697 341.456C48.6177 340.944 49.5937 340.688 50.6977 340.688C51.7857 340.688 52.7457 340.944 53.5777 341.456C54.4097 341.968 55.0497 342.696 55.4977 343.64C55.9617 344.584 56.1937 345.68 56.1937 346.928C56.1937 348.176 55.9617 349.272 55.4977 350.216C55.0497 351.16 54.4097 351.888 53.5777 352.4C52.7457 352.912 51.7857 353.168 50.6977 353.168ZM50.6737 351.872C51.9537 351.872 52.9377 351.448 53.6257 350.6C54.3297 349.736 54.6817 348.512 54.6817 346.928C54.6817 345.36 54.3297 344.144 53.6257 343.28C52.9217 342.4 51.9457 341.96 50.6977 341.96C49.4337 341.96 48.4497 342.4 47.7457 343.28C47.0417 344.144 46.6897 345.36 46.6897 346.928C46.6897 348.528 47.0337 349.752 47.7217 350.6C48.4097 351.448 49.3937 351.872 50.6737 351.872Z" fill="#AF5E6C"/>
<path d="M75.3102 353.168C73.3582 353.168 71.8143 352.632 70.6782 351.56L71.2062 350.432C71.8462 350.96 72.4863 351.336 73.1263 351.56C73.7822 351.784 74.5343 351.896 75.3823 351.896C76.3743 351.896 77.1263 351.728 77.6383 351.392C78.1663 351.04 78.4303 350.536 78.4303 349.88C78.4303 349.336 78.2542 348.912 77.9022 348.608C77.5662 348.288 77.0063 348.032 76.2223 347.84L74.1823 347.384C73.2223 347.16 72.4622 346.76 71.9022 346.184C71.3582 345.608 71.0863 344.936 71.0863 344.168C71.0863 343.112 71.4863 342.272 72.2863 341.648C73.1022 341.008 74.1822 340.688 75.5262 340.688C76.3742 340.688 77.1582 340.824 77.8783 341.096C78.6143 341.368 79.2223 341.76 79.7023 342.272L79.1502 343.4C78.0462 342.44 76.8382 341.96 75.5262 341.96C74.5982 341.96 73.8783 342.144 73.3662 342.512C72.8542 342.88 72.5983 343.392 72.5983 344.048C72.5983 344.592 72.7583 345.032 73.0783 345.368C73.4142 345.704 73.9263 345.952 74.6143 346.112L76.6782 346.616C78.8382 347.096 79.9183 348.16 79.9183 349.808C79.9183 350.816 79.5023 351.632 78.6702 352.256C77.8382 352.864 76.7183 353.168 75.3102 353.168Z" fill="#AF5E6C"/>
<path d="M97.1804 342.152V349.304C97.1804 350.264 97.3644 350.928 97.7324 351.296C98.1004 351.664 98.6444 351.848 99.3644 351.848C99.8124 351.848 100.244 351.776 100.66 351.632V352.952C100.148 353.08 99.6284 353.144 99.1004 353.144C98.0444 353.144 97.2124 352.848 96.6044 352.256C96.0124 351.664 95.7164 350.776 95.7164 349.592V342.152H93.3404V340.976H95.7164V337.784L97.1804 337.232V340.976H100.732V342.152H97.1804Z" fill="#AF5E6C"/>
<path d="M124.898 340.976V353H123.482V350.816C123.098 351.584 122.554 352.168 121.85 352.568C121.146 352.968 120.338 353.168 119.426 353.168C118.018 353.168 116.954 352.776 116.234 351.992C115.514 351.208 115.154 350.048 115.154 348.512V340.976H116.594V348.416C116.594 349.6 116.834 350.472 117.314 351.032C117.794 351.592 118.538 351.872 119.546 351.872C120.73 351.872 121.674 351.504 122.378 350.768C123.082 350.016 123.434 349.024 123.434 347.792V340.976H124.898Z" fill="#AF5E6C"/>
<path d="M146.074 340.688C146.474 340.688 146.826 340.72 147.13 340.784L147.058 342.104C146.754 342.04 146.386 342.008 145.954 342.008C144.738 342.008 143.826 342.4 143.218 343.184C142.626 343.952 142.33 344.872 142.33 345.944V353H140.89V344.312C140.89 343.064 140.826 341.952 140.698 340.976H142.09L142.282 343.208C142.586 342.392 143.074 341.768 143.746 341.336C144.434 340.904 145.21 340.688 146.074 340.688Z" fill="#AF5E6C"/>
<path d="M161.791 346.808V346.88C161.791 348.496 162.159 349.736 162.895 350.6C163.647 351.448 164.735 351.872 166.159 351.872C167.599 351.872 168.919 351.376 170.119 350.384L170.695 351.536C170.167 352.032 169.495 352.432 168.679 352.736C167.863 353.024 167.023 353.168 166.159 353.168C164.335 353.168 162.895 352.616 161.839 351.512C160.783 350.408 160.255 348.888 160.255 346.952C160.255 345.72 160.487 344.632 160.951 343.688C161.431 342.728 162.095 341.992 162.943 341.48C163.791 340.952 164.767 340.688 165.871 340.688C167.455 340.688 168.687 341.2 169.567 342.224C170.463 343.248 170.911 344.672 170.911 346.496V346.808H161.791ZM165.871 341.888C164.767 341.888 163.871 342.224 163.183 342.896C162.495 343.552 162.063 344.48 161.887 345.68H169.519C169.423 344.448 169.063 343.512 168.439 342.872C167.815 342.216 166.959 341.888 165.871 341.888Z" fill="#AF5E6C"/>
<path d="M186.055 340.976H187.495V353H186.055V340.976ZM187.783 336.008V337.88H185.839V336.008H187.783Z" fill="#AF5E6C"/>
<path d="M208.699 340.688C209.099 340.688 209.451 340.72 209.755 340.784L209.683 342.104C209.379 342.04 209.011 342.008 208.579 342.008C207.363 342.008 206.451 342.4 205.843 343.184C205.251 343.952 204.955 344.872 204.955 345.944V353H203.515V344.312C203.515 343.064 203.451 341.952 203.323 340.976H204.715L204.907 343.208C205.211 342.392 205.699 341.768 206.371 341.336C207.059 340.904 207.835 340.688 208.699 340.688Z" fill="#AF5E6C"/>
<path d="M233.848 340.976V353H232.384V350.696C232.032 351.496 231.496 352.112 230.776 352.544C230.072 352.96 229.224 353.168 228.232 353.168C227.16 353.168 226.216 352.92 225.4 352.424C224.6 351.912 223.976 351.192 223.528 350.264C223.096 349.32 222.88 348.224 222.88 346.976C222.88 345.728 223.104 344.632 223.552 343.688C224 342.728 224.624 341.992 225.424 341.48C226.24 340.952 227.176 340.688 228.232 340.688C229.208 340.688 230.048 340.896 230.752 341.312C231.472 341.728 232.016 342.336 232.384 343.136V340.976H233.848ZM228.448 351.872C229.696 351.872 230.664 351.44 231.352 350.576C232.04 349.712 232.384 348.496 232.384 346.928C232.384 345.344 232.04 344.12 231.352 343.256C230.664 342.392 229.688 341.96 228.424 341.96C227.16 341.96 226.176 342.408 225.472 343.304C224.768 344.184 224.416 345.408 224.416 346.976C224.416 348.528 224.768 349.736 225.472 350.6C226.176 351.448 227.168 351.872 228.448 351.872Z" fill="#AF5E6C"/>
<path fill-rule="evenodd" clip-rule="evenodd" d="M256 128C256 165.875 239.55 199.908 213.405 223.343C209.067 203.354 189.04 154.88 149.985 140.5H138.395C136.32 144.087 132.442 146.5 128 146.5C123.558 146.5 119.68 144.087 117.605 140.5H106.121C67.4686 155.003 47.5656 203.79 43.1439 223.832C16.6804 200.382 0 166.139 0 128C0 57.3076 57.3076 0 128 0C198.692 0 256 57.3076 256 128ZM107.5 128.5H117.605C119.68 124.913 123.558 122.5 128 122.5C132.442 122.5 136.32 124.913 138.395 128.5H149V112.598C158 109.092 167.5 93.5643 154 82.5449V57H149V82.5449L128.294 100.324L107.5 82.5V57H102.5V82.5C89 93.5 98.5 109 107.5 112.5V128.5ZM128 141C131.314 141 134 138.314 134 135C134 131.686 131.314 129 128 129C124.686 129 122 131.686 122 135C122 138.314 124.686 141 128 141Z" fill="url(#paint0_linear_33:531)"/>
<path d="M138.5 140.146H149C188.704 154.067 209.031 203.186 213.405 223.343C202.796 232.568 195.718 237.234 181 244.622C183.4 179.92 153.667 148.679 138.5 140.146Z" fill="url(#paint1_linear_33:531)" fill-opacity="0.2"/>
<path d="M154 82.5449C167.5 93.5643 158 109.092 149 112.598L128.293 100.325L149 82.5449V57H154V82.5449Z" fill="url(#paint2_linear_33:531)" fill-opacity="0.2"/>
<defs>
<linearGradient id="paint0_linear_33:531" x1="128" y1="0" x2="128" y2="223.832" gradientUnits="userSpaceOnUse">
<stop stop-color="#FFA59F"/>
<stop offset="1" stop-color="#F3758A"/>
</linearGradient>
<linearGradient id="paint1_linear_33:531" x1="176" y1="140.146" x2="176" y2="246.622" gradientUnits="userSpaceOnUse">
<stop stop-color="#E17280" stop-opacity="0"/>
<stop offset="1" stop-color="#E47786"/>
</linearGradient>
<linearGradient id="paint2_linear_33:531" x1="128" y1="83" x2="149" y2="112.5" gradientUnits="userSpaceOnUse">
<stop offset="0.298363" stop-color="#E47786"/>
<stop offset="1" stop-color="#E17280" stop-opacity="0"/>
</linearGradient>
</defs>
</svg>
